<svg height="24" width="24" xmlns="http://www.w3.org/2000/svg"><g transform="translate(0 -1028.4)"><path d="m4 1031.4c-1.1046 0-2 .9-2 2v16c0 1.1.8954 2 2 2h16c1.105 0 2-.9 2-2v-16c0-1.1-.895-2-2-2z" fill="#1499ca"/><path d="m4 2c-1.1046 0-2 .8954-2 2v16c0 1.105.8954 2 2 2h16c1.105 0 2-.895 2-2v-16c0-1.1046-.895-2-2-2z" fill="#1ab2e8" transform="translate(0 1028.4)"/><path d="m15.474 1036.5c-.811 0-1.532.2-2.107.8-.569.6-.835 1.3-.835 2.1 0 .2.024.4.072.7-1.198-.1-2.325-.4-3.378-.9-1.0475-.6-1.9556-1.3-2.6882-2.2-.2664.4-.3996.9-.3996 1.5 0 .5.1272 1 .3633 1.4s.5449.7.9445 1c-.4723 0-.8961-.1-1.3078-.4v.1c0 .7.2119 1.3.6539 1.9.448.5 1.0292.8 1.7073 1-.2543 0-.5388.1-.7992.1-.1695 0-.3451 0-.5448-.1.1876.6.5509 1.1 1.0534 1.5s1.0716.5 1.7074.6c-1.0656.8-2.3068 1.2-3.669 1.2h-.6902c1.3622.8 2.8637 1.3 4.504 1.3 1.042 0 2.029-.2 2.943-.5s1.677-.8 2.325-1.3c.648-.6 1.205-1.2 1.671-1.9.472-.8.823-1.5 1.053-2.3s.363-1.6.363-2.4c0-.1-.03-.3-.036-.4.575-.4 1.084-.8 1.49-1.4-.564.2-1.145.3-1.708.4.636-.4 1.084-.9 1.308-1.6-.581.3-1.193.6-1.853.7-.581-.6-1.295-.9-2.143-.9z" fill="#1499ca"/><path d="m15.474 1035.5c-.811 0-1.531.2-2.107.8-.569.6-.835 1.3-.835 2.1 0 .2.024.4.073.7-1.199-.1-2.325-.4-3.3788-.9-1.0474-.6-1.9556-1.3-2.6882-2.2-.2664.4-.3995.9-.3995 1.5 0 .5.1271 1 .3632 1.4s.5449.7.9445 1c-.4722 0-.8961-.1-1.3077-.4v.1c0 .7.2119 1.3.6538 1.9.448.5 1.0293.8 1.7074 1-.2543 0-.5389.1-.7992.1-.1695 0-.3451 0-.5449-.1.1877.6.5509 1.1 1.0534 1.5.5026.4 1.0717.5 1.7074.6-1.0656.8-2.3067 1.2-3.669 1.2h-.6902c1.3623.8 2.8637 1.3 4.5048 1.3 1.041 0 2.028-.2 2.942-.5s1.677-.8 2.325-1.3c.648-.6 1.205-1.2 1.671-1.9.472-.8.823-1.5 1.053-2.3.231-.8.364-1.6.364-2.4 0-.1-.031-.3-.037-.4.576-.4 1.084-.8 1.49-1.4-.563.2-1.145.3-1.708.4.636-.4 1.084-.9 1.308-1.6-.581.3-1.193.6-1.852.7-.582-.6-1.296-.9-2.144-.9z" fill="#ecf0f1"/></g></svg>